<?xml version="1.0" encoding="utf-8" ?>
<svg baseProfile="full" height="100%" version="1.1" width="100%" xmlns="http://www.w3.org/2000/svg" xmlns:ev="http://www.w3.org/2001/xml-events" xmlns:xlink="http://www.w3.org/1999/xlink"><defs /><polyline fill="none" points="49.725,168.29999999999998 49.725,408.0 99.45,408.0 107.10000000000001,418.2 298.35,418.2 298.35,168.29999999999998" stroke="purple" stroke-width="2" /><polyline fill="none" points="1219.7925,606.9 1170.45,612.0 1163.9475,615.5699999999999 1161.6525000000001,617.0999999999999 1158.9750000000001,622.1999999999999 1152.4725,627.3 1145.5875,634.9499999999999 1132.2,657.9 1116.9,681.8699999999999 1115.7525,684.93 1113.075,693.5999999999999 1105.425,707.37 1104.2775,710.4300000000001 1101.6000000000001,724.1999999999999 1097.775,732.8699999999999 1095.48,737.4599999999999 1090.125,749.6999999999999 1086.3,772.65 1085.1525000000001,781.8299999999999 1082.4750000000001,790.5 1074.825,804.27 1073.6775,807.3299999999999 1071.0,831.3 1067.175,843.54 1064.88,849.6599999999999 1059.525,866.9999999999999 1055.7,900.66 1054.5525,914.4300000000001 1051.875,928.1999999999999 1048.05,940.4399999999999 1046.9025,945.03 1044.2250000000001,963.9 1040.4,1036.83 1039.2525,1067.4299999999998 1036.575,1162.8 1032.75,1210.7399999999998 1031.6025,1230.6299999999999 1028.925,1366.8 1025.1000000000001,1404.03 1023.9525000000001,1419.33 1021.2750000000001,1433.1 1008.27,1436.1599999999999 1003.6800000000001,1433.1 998.325,1443.3 994.5,1473.3899999999999 992.205,1487.1599999999999 971.5500000000001,1473.8999999999999 965.0475000000001,1470.33 963.9000000000001,1467.27 960.075,1458.6 957.3975,1434.6299999999999 956.25,1431.57 952.4250000000001,1428.0 948.6,1419.33 947.4525000000001,1416.27 944.7750000000001,1387.1999999999998 940.95,1374.9599999999998 937.5074999999999,1367.31 929.475,1331.1 918.0,1312.2299999999998 916.8525,1309.1699999999998 914.1750000000001,1290.3 910.3500000000001,1281.6299999999999 908.0550000000001,1277.04 902.7,1264.8 898.875,1248.9899999999998 897.7275,1242.87 895.0500000000001,1234.1999999999998 887.4000000000001,1220.4299999999998 886.2525,1217.37 883.575,1203.6 879.75,1191.3600000000001 876.3075,1183.71 868.2750000000001,1147.5 856.8000000000001,1128.6299999999999 855.6525,1125.57 852.975,1096.5 849.1500000000001,1087.83 845.7075,1081.71 837.6750000000001,1045.5 826.2,1023.06 825.0525,1018.4699999999999 822.375,989.4 818.5500000000001,980.73 815.1075000000001,974.6099999999999 807.075,933.3 803.25,924.6299999999999 799.8075,918.5099999999999 791.7750000000001,887.4 776.4750000000001,852.7199999999999 771.8850000000001,840.4799999999999 761.1750000000001,821.0999999999999 754.6725000000001,816.0 751.2300000000001,812.9399999999999 745.875,800.6999999999999 739.3725,795.5999999999999 735.93,792.5399999999998 730.575,780.3 724.0725,775.1999999999998 720.6300000000001,772.1399999999999 715.275,759.9 700.74,754.8 691.56,748.68 646.4250000000001,734.4 639.9225,739.5 630.7425000000001,750.21 612.0,780.3 608.1750000000001,788.9699999999999 605.8800000000001,793.56 600.525,805.8 596.7,828.75 595.5525,837.93 592.875,851.6999999999999 589.0500000000001,860.3699999999999 587.9025,863.43 585.225,897.5999999999999 581.4,941.97 582.5475,960.3299999999999 585.225,1009.8 589.0500000000001,1022.04 590.1975000000001,1026.6299999999999 592.875,1040.3999999999999 596.7,1063.35 597.8475000000001,1072.53 600.525,1101.6 604.35,1113.8399999999997 605.4975000000001,1118.4299999999998 608.1750000000001,1127.1 612.0,1146.48 613.1475,1154.1299999999999 615.825,1234.1999999999998 619.65,1246.44 620.7975,1251.03 623.475,1259.6999999999998 627.3000000000001,1268.37 628.4475,1271.4299999999998 631.125,1280.1 642.6,1298.9699999999998 643.7475000000001,1302.03 646.4250000000001,1310.6999999999998 654.075,1328.04 655.2225000000001,1332.6299999999999 657.9,1346.3999999999999 661.725,1355.07 662.8725000000001,1358.1299999999999 665.5500000000001,1366.8 673.2,1384.1399999999999 674.3475000000001,1388.73 677.025,1397.3999999999999 680.85,1406.07 681.9975000000001,1409.1299999999999 684.6750000000001,1422.8999999999999 688.5,1442.28 689.6475,1449.9299999999998 692.325,1468.8 696.15,1477.47 697.2975,1480.53 699.975,1489.1999999999998 703.8000000000001,1505.0099999999998 704.9475,1511.1299999999999 707.625,1519.8 715.275,1533.57 716.4225,1536.6299999999999 719.1,1560.6 722.9250000000001,1569.27 724.0725,1572.33 726.75,1581.0 730.575,1646.79 729.4275,1674.33 726.75,1713.6 722.9250000000001,1768.6799999999998 721.7775,1791.63 719.1,1820.6999999999998 715.275,1836.5099999999998 712.98,1844.1599999999999 707.625,1856.3999999999999 703.8000000000001,1868.6399999999999 702.6525,1873.23 699.975,1881.8999999999999 688.5,1900.77 687.3525000000001,1903.83 684.6750000000001,1912.4999999999998 673.2,1931.37 668.61,1939.02 657.9,1958.3999999999999 641.07,1973.6999999999998 637.6275,1975.2299999999998 623.475,1978.8 614.295,1973.6999999999998 609.705,1970.6399999999999 600.525,1963.4999999999998 591.345,1958.4 584.46,1952.2799999999997 569.9250000000001,1937.9999999999998 563.4225,1932.8999999999996 561.1275,1931.37 558.45,1922.6999999999998 541.2375,1904.85 534.3525,1897.1999999999998 516.375,1876.8 494.95500000000004,1843.1399999999999 485.7750000000001,1829.37 470.475,1805.3999999999999 467.79750000000007,1796.73 465.50250000000005,1795.1999999999998 459.0,1790.1 456.3225,1781.4299999999998 455.17500000000007,1778.37 443.70000000000005,1759.4999999999998 441.02250000000004,1750.83 439.875,1747.77 401.625,1693.1999999999998 389.76750000000004,1682.4899999999998 385.1775,1677.8999999999999 378.675,1672.8 364.14000000000004,1658.52 358.40250000000003,1652.3999999999999 344.25,1637.1 337.7475,1633.53 334.305,1632.0 313.65000000000003,1611.6 299.4975,1608.03 297.20250000000004,1606.5 283.05,1591.1999999999998 261.2475,1587.6299999999997 257.805,1586.1 248.625,1581.0 242.1225,1577.4299999999998 220.32000000000002,1575.8999999999999 168.3,1581.0 161.7975,1584.5699999999997 158.35500000000002,1586.1 149.175,1591.1999999999998 135.0225,1594.77 132.7275,1596.3 130.05,1708.4999999999998 137.70000000000002,1722.27 138.84750000000003,1725.33 145.35,1728.8999999999999 149.175,1737.57 158.35500000000002,1751.34 179.775,1784.9999999999998 183.60000000000002,1793.67 184.74750000000003,1796.73 187.425,1805.3999999999999 195.07500000000002,1822.74 196.22250000000003,1827.33 198.9,1851.3 202.72500000000002,1863.54 205.02,1869.6599999999999 210.375,1881.8999999999999 214.20000000000002,1897.71 218.79000000000002,1908.42 229.5,1927.8 233.32500000000005,1936.4699999999998 236.76750000000004,1942.5899999999997 244.8,1958.3999999999999 260.1,1982.37 261.2475,1985.4299999999998 263.925,1994.1 275.40000000000003,2012.9699999999998 279.99,2020.62 290.7,2039.9999999999998 294.52500000000003,2048.67 297.96750000000003,2054.79 306.0,2070.6 312.5025,2075.7 315.94500000000005,2078.7599999999998 321.3,2091.0 332.77500000000003,2109.8699999999994 335.07,2114.4599999999996 340.425,2126.7 351.90000000000003,2149.14 356.49,2158.3199999999997 367.20000000000005,2187.8999999999996 378.675,2206.7699999999995 379.8225,2209.83 382.5,2223.6 386.32500000000005,2232.2699999999995 389.76750000000004,2238.3899999999994 397.8,2254.2 413.1,2278.17 417.69000000000005,2285.8199999999997 428.40000000000003,2305.2 459.0,2349.5699999999997 463.59,2357.22 474.3,2376.6 480.8025,2381.7 484.245,2384.7599999999998 489.6,2397.0 520.2,2441.37 523.6425,2447.49 531.6750000000001,2463.2999999999997 550.8000000000001,2492.3699999999994 564.57,2512.2599999999998 596.7,2560.2 603.2025000000001,2565.2999999999997 613.5300000000001,2577.5399999999995 638.775,2606.1 652.9275,2621.3999999999996 655.2225000000001,2622.93 661.725,2626.5 679.7025,2646.8999999999996 685.44,2653.0199999999995 699.975,2667.2999999999997 706.4775,2672.3999999999996 711.0675,2676.99 722.9250000000001,2687.7 740.9025000000001,2708.1 746.6400000000001,2714.22 761.1750000000001,2728.5 780.3000000000001,2757.57 786.0375000000001,2766.75 799.4250000000001,2789.7 805.9275,2793.2699999999995 807.075,2796.33 810.9000000000001,2805.0 813.5775000000001,2818.7699999999995 814.725,2821.8299999999995 822.375,2835.6 825.0525,2844.2699999999995 826.2,2848.8599999999997 830.0250000000001,2861.1 835.3800000000001,2873.3399999999997 837.6750000000002,2877.93 841.5,2886.6 846.855,2914.14 849.1500000000001,2918.7299999999996 852.975,2927.3999999999996 855.6525,2936.0699999999997 856.8000000000001,2943.72 860.625,2963.1 865.98,2975.3399999999997 868.2750000000001,2979.93 872.1,2988.6 880.1324999999999,3019.71 883.575,3027.3599999999997 887.4000000000001,3039.6 890.0775000000001,3053.37 891.225,3056.43 898.875,3070.2 901.5525,3078.87 902.7,3083.46 914.1750000000001,3105.8999999999996 916.8525,3114.57 918.0,3119.16 921.825,3131.3999999999996 924.5025,3136.5 927.9450000000002,3139.56 933.3000000000001,3167.1 937.125,3175.7699999999995 940.5675,3181.89 948.6,3213.0 960.075,3231.87 961.2225000000001,3234.93 963.9000000000001,3253.7999999999997 1816.875,3250.2299999999996 1812.285,3242.58 1801.575,3223.2 1797.75,3214.5299999999997 1794.3075,3208.41 1786.275,3192.6 1782.45,3183.9299999999994 1781.3025,3182.3999999999996 1770.9750000000001,3172.2 1760.2650000000003,3152.8199999999997 1755.6750000000002,3143.64 1751.8500000000001,3131.3999999999996 1749.1725000000001,3126.3 1746.8775,3124.77 1744.2,3116.1 1740.375,3107.43 1739.2275,3104.37 1732.7250000000001,3100.7999999999997 1725.075,3087.0299999999997 1723.9275000000002,3083.97 1721.25,3075.2999999999997 1714.7475,3071.73 1713.6000000000001,3068.67 1709.775,3060.0 1707.0975,3046.23 1705.95,3043.17 1702.125,3039.6 1694.4750000000001,3025.83 1693.3275,3022.77 1690.65,3014.1 1679.1750000000002,2991.66 1674.5850000000003,2982.48 1663.875,2963.1 1652.4,2944.23 1651.2525,2941.17 1648.575,2922.2999999999997 1633.275,2891.19 1628.6850000000002,2880.48 1617.9750000000001,2861.1 1614.15,2852.43 1611.855,2847.8399999999997 1606.5,2835.6 1602.6750000000002,2823.3599999999997 1601.5275000000001,2818.7699999999995 1598.8500000000001,2810.1 1591.2,2796.33 1590.0525,2793.2699999999995 1587.375,2759.1 1583.5500000000002,2750.43 1581.255,2745.8399999999997 1575.9,2728.5 1572.0749999999998,2709.12 1570.9275,2701.47 1568.25,2692.7999999999997 1560.6000000000001,2671.89 1559.4525,2665.7699999999995 1556.775,2646.8999999999996 1560.6000000000001,2627.5199999999995 1562.8950000000002,2618.3399999999997 1568.25,2606.1 1572.0749999999998,2597.43 1573.2224999999999,2594.37 1575.9,2585.7 1583.5500000000002,2571.9299999999994 1584.6975000000002,2568.8699999999994 1587.375,2560.2 1602.6750000000002,2529.09 1603.8225,2522.97 1606.5,2514.2999999999997 1617.9750000000001,2491.8599999999997 1619.1225000000002,2487.2699999999995 1621.8000000000002,2478.6 1629.45,2464.83 1630.5975,2461.7699999999995 1633.275,2448.0 1637.1000000000001,2439.33 1639.395,2434.74 1644.75,2422.5 1648.5750000000003,2406.6899999999996 1649.7225,2400.5699999999997 1652.4,2391.8999999999996 1663.875,2358.75 1665.0225,2349.5699999999997 1667.7,2340.8999999999996 1671.525,2332.2299999999996 1672.6725000000001,2329.17 1675.3500000000001,2320.5 1679.1750000000002,2297.5499999999997 1682.6175000000003,2285.3099999999995 1690.65,2264.3999999999996 1694.4750000000001,2237.8799999999997 1695.6225,2227.1699999999996 1698.3000000000002,2218.5 1702.125,2209.83 1703.2725,2206.7699999999995 1705.95,2198.1 1709.775,2171.58 1710.9225000000001,2160.87 1713.6000000000001,2152.2 1717.4250000000002,2143.5299999999997 1719.72,2138.9399999999996 1725.075,2075.7 1728.9,2063.46 1731.1950000000002,2057.3399999999997 1736.5500000000002,2039.9999999999998 1740.375,1995.6299999999999 1741.5225,1977.27 1744.2,1958.3999999999999 1748.025,1949.73 1749.1725000000001,1946.6699999999998 1751.8500000000001,1932.8999999999999 1755.6750000000002,1895.67 1756.8225000000002,1880.37 1759.5,1866.6 1767.15,1852.83 1768.2975000000001,1849.77 1770.9750000000001,1830.8999999999999 1774.8000000000002,1822.23 1778.2425000000003,1816.1099999999997 1786.275,1790.1 1790.1,1781.4299999999998 1793.5425,1775.31 1801.575,1754.3999999999999 1809.2250000000001,1740.6299999999999 1811.52,1736.04 1816.875,1718.6999999999998 1820.7000000000003,1710.0299999999997 1822.9950000000001,1705.4399999999998 1828.3500000000001,1693.1999999999998 1832.1750000000002,1680.9599999999998 1833.3225000000002,1676.37 1836.0,1667.6999999999998 1843.65,1653.9299999999998 1844.7975000000001,1650.87 1847.4750000000001,1637.1 1851.3000000000002,1628.43 1853.5950000000003,1623.84 1858.95,1611.6 1862.775,1599.36 1866.2175,1591.71 1874.25,1570.8 1878.075,1558.56 1879.2225,1553.9699999999998 1881.9,1545.3 1889.5500000000002,1531.53 1890.6975,1528.47 1893.375,1514.6999999999998 1897.2,1506.03 1899.4950000000001,1501.44 1904.8500000000001,1489.1999999999998 1908.6750000000002,1466.25 1909.8225000000002,1457.07 1912.5,1448.3999999999999 1920.15,1434.6299999999999 1921.2975000000001,1431.57 1923.9750000000001,1407.6 1927.8000000000002,1398.9299999999998 1930.0950000000003,1394.34 1935.45,1382.1 1939.275,1359.15 1940.4225000000001,1349.97 1943.1000000000001,1341.3 1950.75,1323.96 1951.8975,1319.37 1954.575,1127.1 1948.0725000000002,1123.53 1942.335,1122.0 1927.8000000000002,1116.8999999999999 1909.8225000000002,1120.47 1905.2325,1122.0 1893.375,1127.1 1884.1950000000002,1134.2399999999998 1880.7525,1137.3 1874.25,1142.3999999999999 1860.0974999999999,1145.97 1857.8025,1147.5 1843.65,1162.8 1815.7275,1194.9299999999998 1805.4,1210.2299999999998 1801.575,1218.8999999999999 1793.5425,1234.71 1790.1,1240.83 1786.275,1249.5 1778.2425000000003,1265.31 1774.8000000000002,1271.4299999999998 1763.325,1290.3 1760.6475,1304.07 1759.5,1308.6599999999999 1748.025,1331.1 1745.3475000000003,1339.77 1744.2000000000003,1342.83 1740.375,1351.5 1737.6975000000002,1360.1699999999998 1735.4025000000001,1361.6999999999998 1732.7250000000001,1366.8 1728.9,1375.47 1725.4575,1381.5900000000001 1717.4250000000002,1397.3999999999999 1709.775,1411.1699999999998 1706.3325,1417.29 1698.3000000000002,1433.1 1694.4750000000001,1441.77 1691.0325,1447.8899999999999 1683.0,1463.6999999999998 1679.1750000000002,1472.37 1675.7325000000003,1478.4899999999998 1667.7,1494.3 1652.4,1518.27 1648.9575000000002,1524.3899999999999 1637.1000000000001,1535.1 1629.0675,1550.9099999999999 1625.625,1557.03 1617.9750000000001,1570.8 1609.9425,1586.6099999999997 1606.5,1592.7299999999998 1602.6750000000002,1601.3999999999999 1599.9975,1610.07 1597.7025,1611.6 1595.025,1616.6999999999998 1587.375,1630.4699999999998 1585.08,1635.06 1575.9,1642.1999999999998 1562.8950000000002,1645.2599999999998 1560.6000000000001,1628.4299999999998 1568.25,1586.1 1570.9275,1572.33 1572.0749999999998,1561.62 1575.9,1535.1 1581.255,1517.7599999999998 1583.5500000000002,1511.6399999999999 1587.375,1499.3999999999999 1590.0525,1470.33 1591.2,1465.7399999999998 1598.8500000000001,1448.3999999999999 1601.5275000000001,1439.7299999999998 1602.6750000000002,1422.8999999999999 1606.5,1382.1 1609.1775,1363.2299999999998 1610.325,1360.1699999999998 1614.15,1351.5 1616.8275,1337.7299999999998 1617.9750000000001,1313.2499999999998 1621.8000000000002,1254.6 1624.4775000000002,1230.6299999999999 1625.625,1227.57 1629.45,1218.8999999999999 1632.1275,1200.03 1633.275,1151.07 1637.1000000000001,1035.3 1639.7775000000001,996.0299999999999 1640.9250000000002,991.4399999999998 1644.75,979.1999999999999 1647.4275000000002,955.23 1648.5750000000003,916.9799999999999 1644.75,826.1999999999999 1636.7175000000002,810.39 1633.275,802.74 1629.45,790.5 1624.095,778.2599999999999 1620.6525000000001,775.1999999999998 1606.5,759.9 1599.9975,756.3299999999999 1597.7025,754.8 1591.2,749.6999999999999 1584.6975000000002,746.1299999999999 1583.5500000000002,743.0699999999999 1575.9,739.5 1542.6225,734.4 1528.8525000000002,735.93 1522.3500000000001,739.5 1512.0225,749.7 1509.7275,751.23 1503.2250000000001,754.8 1499.4,763.47 1497.105,768.06 1487.9250000000002,775.1999999999999 1484.1000000000004,783.87 1482.9525000000003,786.9300000000001 1480.275,795.5999999999999 1472.625,812.9399999999999 1471.4775,817.53 1468.8000000000002,836.4 1464.9750000000001,848.64 1463.8275,853.23 1461.15,861.9 1457.325,874.14 1456.1775,878.73 1453.5,912.9 1449.675,928.71 1448.5275000000001,934.8299999999999 1445.8500000000001,943.4999999999999 1442.025,955.74 1440.8775,960.3299999999999 1438.2,989.4 1434.375,1012.3499999999999 1433.2275,1021.53 1430.55,1030.1999999999998 1426.7250000000001,1046.0099999999998 1425.5775,1052.1299999999999 1422.9,1086.3 1419.075,1102.11 1417.9275,1108.2299999999998 1415.25,1116.8999999999999 1411.425,1129.1399999999999 1410.2775000000001,1133.73 1407.6000000000001,1157.6999999999998 1403.775,1169.94 1401.48,1176.06 1396.125,1193.3999999999999 1392.3,1209.21 1391.1525,1215.33 1388.4750000000001,1229.1 1384.65,1237.77 1383.5025,1240.83 1380.825,1249.5 1377.0,1265.31 1375.8525,1271.4299999999998 1373.175,1285.1999999999998 1369.3500000000001,1293.87 1368.2025,1296.9299999999998 1365.525,1310.6999999999998 1361.7,1326.51 1360.5525,1332.6299999999999 1357.875,1346.3999999999999 1350.2250000000001,1363.7399999999998 1349.0775,1368.33 1346.4,1392.3 1342.575,1408.1099999999997 1341.4275,1414.2299999999998 1338.75,1422.8999999999999 1334.925,1431.57 1333.7775,1434.6299999999999 1331.1000000000001,1458.6 1327.275,1474.4099999999999 1326.1275,1480.53 1323.45,1489.1999999999998 1305.4725,1509.6 1303.1775,1508.07 1296.675,1504.5 1285.2,1453.4999999999998 1284.0525,1436.6699999999998 1281.375,800.6999999999999 1285.2,784.8899999999999 1287.4950000000001,777.2399999999999 1292.8500000000001,759.9 1296.675,726.24 1295.5275,712.47 1292.8500000000001,698.6999999999999 1285.2,684.93 1284.0525,681.8699999999999 1281.375,663.0 1266.075,639.03 1264.9275,635.97 1258.425,632.4 1250.775,618.6299999999999 1249.6275,615.5699999999999 1243.125,612.0 1193.7825,606.9" stroke="yellow" stroke-width="2" /></svg>